<svg id="Capa_1" fill="#ffbb64" enable-background="new 0 0 512 512" height="512" viewBox="0 0 512 512" width="512" xmlns="http://www.w3.org/2000/svg">
<g><g><path d="m502 359.071h-12.824l-47.855-158.761c-1.239-4.108-4.953-6.955-9.214-7.107.221-2.004.332-4.026.332-6.061 0-27.891-20.833-51.008-47.756-54.604-6.55-24.941-29.163-42.849-55.701-42.849-12.143 0-23.745 3.752-33.452 10.703-14.406-10.348-31.723-15.968-49.603-15.968-27.053 0-52.102 12.649-68.124 34.121-.059-.001-.118-.001-.177-.001-23.258 0-44.258 14.001-53.212 35.454-13.063 2.876-24.917 10.278-33.198 20.899-4.269 5.473-7.511 11.689-9.576 18.298h-1.386c-4.411 0-8.301 2.891-9.575 7.114l-47.855 158.762h-12.824c-5.523 0-10 4.478-10 10v48.505c0 5.522 4.477 10 10 10h200.794c5.523 0 10-4.478 10-10s-4.477-10-10-10h-190.794v-28.505h472v28.505h-190.793c-5.523 0-10 4.478-10 10s4.477 10 10 10h200.793c5.523 0 10-4.478 10-10v-48.505c0-5.522-4.477-10-10-10zm-395.013-171.874c6.289-8.065 15.726-13.291 25.891-14.338 4.045-.416 7.435-3.24 8.575-7.143 5.138-17.588 22.089-28.91 40.303-26.949 3.76.408 7.432-1.344 9.482-4.523 12.036-18.673 32.48-29.82 54.689-29.82 15.894 0 31.208 5.808 43.121 16.353 3.929 3.479 9.877 3.328 13.625-.343 7.076-6.929 16.419-10.745 26.309-10.745 19.227 0 35.297 14.391 37.38 33.475.564 5.169 5.046 9.035 10.192 8.912l.458-.015c.112-.004.224-.01.336-.01 19.349 0 35.09 15.741 35.09 35.091 0 2.042-.175 4.064-.523 6.054h-308.751c1.08-2.112 2.359-4.123 3.823-5.999zm-63.275 171.874 43.972-145.876h336.632l43.972 145.876z"/><path d="m265.42 413.754c-1.613-3.932-5.712-6.455-9.949-6.148-4.155.301-7.749 3.224-8.896 7.225-1.15 4.013.391 8.439 3.783 10.874 3.337 2.396 7.957 2.465 11.372.189 3.917-2.61 5.5-7.791 3.69-12.14z"/></g></g></svg>